<?xml version="1.0" ?><!DOCTYPE svg  PUBLIC '-//W3C//DTD SVG 1.1//EN'  'http://www.w3.org/Graphics/SVG/1.1/DTD/svg11.dtd'><svg enable-background="new 0 0 512 512" id="Layer_1" version="1.1" viewBox="0 0 512 512" xml:space="preserve" xmlns="http://www.w3.org/2000/svg" xmlns:xlink="http://www.w3.org/1999/xlink"><linearGradient gradientUnits="userSpaceOnUse" id="SVGID_1_" x1="256" x2="256" y1="512" y2="-9.094947e-013"><stop offset="0" style="stop-color:#8E54E9"/><stop offset="1" style="stop-color:#4776E6"/></linearGradient><circle cx="256" cy="256" fill="url(#SVGID_1_)" r="256"/><g><path d="M175.4,282.1V142.7c0-2.8-2.3-5.1-5.1-5.1s-5.1,2.3-5.1,5.1v139.4c-19.1,2.5-34,18.8-34,38.5   c0,19.8,14.9,36,34,38.5v10.2c0,2.8,2.3,5.1,5.1,5.1s5.1-2.3,5.1-5.1v-10.2c19.1-2.5,34-18.8,34-38.5   C209.4,300.8,194.5,284.6,175.4,282.1z M170.3,349.5C170.3,349.5,170.3,349.5,170.3,349.5C170.3,349.5,170.3,349.5,170.3,349.5   c-15.9,0-28.9-13-28.9-28.9c0-15.9,13-28.9,28.9-28.9s28.9,12.9,28.9,28.9C199.2,336.5,186.2,349.5,170.3,349.5z" fill="#FFFFFF"/><path d="M380.7,282.5c0-19.8-14.9-36-34-38.5V142.7c0-2.8-2.3-5.1-5.1-5.1c-2.8,0-5.1,2.3-5.1,5.1V244   c-19.1,2.5-34,18.7-34,38.5c0,19.8,14.9,36,34,38.5v48.3c0,2.8,2.3,5.1,5.1,5.1c2.8,0,5.1-2.3,5.1-5.1v-48.3   C365.9,318.5,380.7,302.3,380.7,282.5z M341.7,311.4c-15.9,0-28.9-12.9-28.9-28.9c0-15.9,13-28.9,28.9-28.9   c15.9,0,28.9,13,28.9,28.9C370.5,298.4,357.6,311.4,341.7,311.4z" fill="#FFFFFF"/><path d="M261.7,152.9v-10.2c0-2.8-2.3-5.1-5.1-5.1c-2.8,0-5.1,2.3-5.1,5.1v10.2c-19.1,2.5-34,18.8-34,38.5   s14.9,36,34,38.5v139.4c0,2.8,2.3,5.1,5.1,5.1c2.8,0,5.1-2.3,5.1-5.1V230c19.1-2.5,34-18.8,34-38.5S280.9,155.4,261.7,152.9z    M256.7,220.3C256.7,220.3,256.6,220.3,256.7,220.3C256.6,220.3,256.6,220.3,256.7,220.3c-15.9,0-28.9-13-28.9-28.9   c0-15.9,13-28.9,28.9-28.9c15.9,0,28.9,13,28.9,28.9C285.5,207.3,272.6,220.3,256.7,220.3z" fill="#FFFFFF"/></g></svg>